<svg width="30" height="31" viewBox="0 0 30 31" fill="none" xmlns="http://www.w3.org/2000/svg">
    <path
        d="M21.4454 5.0704L21.4454 7.12996C21.4454 7.27059 21.5069 7.40242 21.6153 7.49032C21.8643 7.69539 22.1045 7.91512 22.3331 8.14657C23.2806 9.09315 24.0358 10.2144 24.5567 11.4483C25.0966 12.7267 25.3736 14.1007 25.3711 15.4884C25.3711 16.8917 25.0957 18.2511 24.5567 19.5284C24.0358 20.7623 23.2806 21.8836 22.3331 22.8302C21.3887 23.7784 20.2694 24.5346 19.0372 25.0567C17.7598 25.5987 16.4034 25.8712 15 25.8712C13.5967 25.8712 12.2403 25.5958 10.9629 25.0567C9.72954 24.5352 8.61919 23.7852 7.66704 22.8302C6.71489 21.8751 5.96489 20.7647 5.4434 19.5284C4.90434 18.2511 4.62895 16.8917 4.62895 15.4884C4.62895 14.085 4.90141 12.7257 5.4434 11.4483C5.96489 10.212 6.71489 9.10164 7.66704 8.14657C7.89848 7.91512 8.13872 7.69832 8.38481 7.49032C8.49321 7.40243 8.55473 7.26766 8.55473 7.12996L8.55473 5.0704C8.55473 4.88583 8.34965 4.77157 8.19438 4.87411C4.70219 7.12118 2.39067 11.0528 2.40239 15.5206C2.41997 22.5401 8.11821 28.168 15.129 28.0977C22.0284 28.0274 27.5977 22.4083 27.5977 15.4884C27.5977 11.0323 25.2891 7.11825 21.8057 4.8741C21.6504 4.7745 21.4454 4.88583 21.4454 5.0704ZM14.8155 2.4659L11.5342 6.62313C11.4112 6.7784 11.5225 7.00399 11.7188 7.00399L13.9454 7.00399L13.9454 16.2032C13.9454 16.3321 14.0508 16.4376 14.1797 16.4376L15.8204 16.4376C15.9493 16.4376 16.0547 16.3321 16.0547 16.2032L16.0547 7.00399L18.2813 7.00399C18.4776 7.00399 18.5889 6.77547 18.4659 6.62313L15.1846 2.4659C15.1627 2.43789 15.1347 2.41523 15.1027 2.39965C15.0707 2.38407 15.0356 2.37598 15 2.37598C14.9645 2.37598 14.9294 2.38407 14.8974 2.39965C14.8654 2.41523 14.8374 2.43789 14.8155 2.4659Z"
        fill="currentColor" />
</svg>
    